{
  "title": "The Fall  S02E05 x264 RB58.mp4",
  "uid": 11661654,
  "size": 350440957,
  "categoryP": "video",
  "categoryS": "tv_shows",
  "magnet": "?xt=urn:btih:5f7a0685985fc316eb3f49c361cd0db329fb02b1&amp;dn=The+Fall++S02E05+x264+RB58.mp4&amp;tr=udp%3A%2F%2Ftracker.openbittorrent.com%3A80&amp;tr=udp%3A%2F%2Fopen.demonii.com%3A1337&amp;tr=udp%3A%2F%2Ftracker.coppersurfer.tk%3A6969&amp;tr=udp%3A%2F%2Fexodus.desync.com%3A6969",
  "seeders": 148,
  "leechers": 7,
  "uploader": "RedBaron58",
  "files": 1,
  "time": 1418006262,
  "description": "The Fall S02E05 - Crime Drama x264 mp4\n  &lt;a href=&quot;\nhttp://www.imdb.com/title/tt2294189/&quot; rel=&quot;nofollow&quot; target=&quot;_NEW&quot;&gt;\nhttp://www.imdb.com/title/tt2294189/&lt;/a&gt;\n\nTrailer\n\n\nThank you for your kind comments and thumbs ups on my other torrents, your feedback is welcome.\n\n\nAbout the Episode:\nWith Spector under surveillance, Gibson wants to make sure that a solid arrest strategy is put in place \nso that no evidence is lost and the police have the best chance of saving Rose Stagg. \nHowever, the killer's unpredictability forces the detective to act quickly as her carefully laid plans \nfall apart in front of her eyes.\n\nStarring Gillian Anderson and Jamie Dornan.\n\nI hope you enjoy.\n\n\nTechnical:\n\nGeneral\nComplete name                            : H:The Fall  S02E05 x264 RB58.mp4\nFormat                                   : MPEG-4\nFormat profile                           : Base Media\nCodec ID                                 : isom\nFile size                                : 334 MiB\nDuration                                 : 57mn 4s\nOverall bit rate                         : 819 Kbps\nWriting application                      : Lavf54.63.104\n\nVideo\nID                                       : 1\nFormat                                   : AVC\nFormat/Info                              : Advanced Video Codec\nFormat profile                           : &lt;a class=&quot;__cf_email__&quot; href=&quot;/cdn-cgi/l/email-protection&quot; data-cfemail=&quot;2961404e4169651a0718&quot;&gt;[email&amp;#160;protected]&lt;/a&gt;&lt;script cf-hash='f9e31' type=&quot;text/javascript&quot;&gt;\n/* &lt;![CDATA[ */!function(){try{var t=&quot;currentScript&quot;in document?document.currentScript:function(){for(var t=document.getElementsByTagName(&quot;script&quot;),e=t.length;e--;)if(t[e].getAttribute(&quot;cf-hash&quot;))return t[e]}();if(t&amp;&amp;t.previousSibling){var e,r,n,i,c=t.previousSibling,a=c.getAttribute(&quot;data-cfemail&quot;);if(a){for(e=&quot;&quot;,r=parseInt(a.substr(0,2),16),n=2;a.length-n;n+=2)i=parseInt(a.substr(n,2),16)^r,e+=String.fromCharCode(i);e=document.createTextNode(e),c.parentNode.replaceChild(e,c)}}}catch(u){}}();/* ]]&gt; */&lt;/script&gt;\nFormat settings, CABAC                   : Yes\nFormat settings, ReFrames                : 4 frames\nCodec ID                                 : avc1\nCodec ID/Info                            : Advanced Video Coding\nDuration                                 : 57mn 4s\nDuration_LastFrame                       : -20ms\nBit rate                                 : 697 Kbps\nNominal bit rate                         : 1 400 Kbps\nWidth                                    : 832 pixels\nHeight                                   : 468 pixels\nDisplay aspect ratio                     : 16:9\nFrame rate mode                          : Constant\nFrame rate                               : 25.000 fps\nOriginal frame rate                      : 50.000 fps\nColor space                              : YUV\nChroma subsampling                       : 4:2:0\nBit depth                                : 8 bits\nScan type                                : Progressive\nBits/(Pixel*Frame)                       : 0.072\nStream size                              : 284 MiB (85%)\nWriting library                          : x264 core 123 r2189 35cf912\nEncoding settings                        : cabac=1 / ref=3 / deblock=1:0:0\n\nAudio\nID                                       : 2\nFormat                                   : AAC\nFormat/Info                              : Advanced Audio Codec\nFormat profile                           : LC\nCodec ID                                 : 40\nDuration                                 : 57mn 4s\nBit rate mode                            : Constant\nBit rate                                 : 113 Kbps\nChannel(s)                               : 2 channels\nChannel positions                        : Front: L R\nSampling rate                            : 48.0 KHz\nCompression mode                         : Lossy\nStream size                              : 46.2 MiB (14%)",
  "parsed": {
    "xt": "urn:btih:5f7a0685985fc316eb3f49c361cd0db329fb02b1",
    "dn": "The Fall  S02E05 x264 RB58.mp4",
    "tr": [
      "udp://exodus.desync.com:6969",
      "udp://open.demonii.com:1337",
      "udp://tracker.coppersurfer.tk:6969",
      "udp://tracker.openbittorrent.com:80"
    ],
    "infoHash": "5f7a0685985fc316eb3f49c361cd0db329fb02b1",
    "infoHashBuffer": {
      "type": "Buffer",
      "data": [
        95,
        122,
        6,
        133,
        152,
        95,
        195,
        22,
        235,
        63,
        73,
        195,
        97,
        205,
        13,
        179,
        41,
        251,
        2,
        177
      ]
    },
    "name": "The Fall  S02E05 x264 RB58.mp4",
    "announce": [
      "udp://exodus.desync.com:6969",
      "udp://open.demonii.com:1337",
      "udp://tracker.coppersurfer.tk:6969",
      "udp://tracker.openbittorrent.com:80"
    ],
    "urlList": []
  },
  "previous": 23,
  "peers": 61,
  "last_updated": "2016-12-27T01:44:17.712Z"
}